<svg xmlns="http://www.w3.org/2000/svg" viewBox="0 0 800 500" width="800" height="500" style="background:#0f172a; font-family:sans-serif;">
<text x="400" y="36" text-anchor="middle" fill="#f8fafc" font-size="18" font-weight="bold">Look-Alike False Positive Rate (FPR) vs Detection Threshold</text>
<text x="400" y="56" text-anchor="middle" fill="#94a3b8" font-size="12">Validation split (7 scenes) threshold sensitivity comparison</text>
<rect x="80" y="80" width="640" height="340" rx="6" fill="#1e293b" stroke="#334155" stroke-width="1.5"/>
<line x1="80" y1="148" x2="720" y2="148" stroke="#334155" stroke-dasharray="3,3"/>
<line x1="80" y1="216" x2="720" y2="216" stroke="#334155" stroke-dasharray="3,3"/>
<line x1="80" y1="284" x2="720" y2="284" stroke="#334155" stroke-dasharray="3,3"/>
<line x1="80" y1="352" x2="720" y2="352" stroke="#334155" stroke-dasharray="3,3"/>
<polyline points="80,347 186,352 293,357 400,362 506,366 720,374" fill="none" stroke="#94a3b8" stroke-width="2.0"/>
<circle cx="80" cy="347" r="4" fill="#94a3b8" stroke="#0f172a" stroke-width="1"/>
<circle cx="186" cy="352" r="4" fill="#94a3b8" stroke="#0f172a" stroke-width="1"/>
<circle cx="293" cy="357" r="4" fill="#94a3b8" stroke="#0f172a" stroke-width="1"/>
<circle cx="400" cy="362" r="4" fill="#94a3b8" stroke="#0f172a" stroke-width="1"/>
<circle cx="506" cy="366" r="4" fill="#94a3b8" stroke="#0f172a" stroke-width="1"/>
<circle cx="720" cy="374" r="4" fill="#94a3b8" stroke="#0f172a" stroke-width="1"/>
<polyline points="80,232 186,262 293,292 400,336 506,373 720,413" fill="none" stroke="#3b82f6" stroke-width="2.0"/>
<circle cx="80" cy="232" r="4" fill="#3b82f6" stroke="#0f172a" stroke-width="1"/>
<circle cx="186" cy="262" r="4" fill="#3b82f6" stroke="#0f172a" stroke-width="1"/>
<circle cx="293" cy="292" r="4" fill="#3b82f6" stroke="#0f172a" stroke-width="1"/>
<circle cx="400" cy="336" r="4" fill="#3b82f6" stroke="#0f172a" stroke-width="1"/>
<circle cx="506" cy="373" r="4" fill="#3b82f6" stroke="#0f172a" stroke-width="1"/>
<circle cx="720" cy="413" r="4" fill="#3b82f6" stroke="#0f172a" stroke-width="1"/>
<polyline points="80,252 186,269 293,283 400,295 506,307 720,333" fill="none" stroke="#10b981" stroke-width="2.0"/>
<circle cx="80" cy="252" r="4" fill="#10b981" stroke="#0f172a" stroke-width="1"/>
<circle cx="186" cy="269" r="4" fill="#10b981" stroke="#0f172a" stroke-width="1"/>
<circle cx="293" cy="283" r="4" fill="#10b981" stroke="#0f172a" stroke-width="1"/>
<circle cx="400" cy="295" r="4" fill="#10b981" stroke="#0f172a" stroke-width="1"/>
<circle cx="506" cy="307" r="4" fill="#10b981" stroke="#0f172a" stroke-width="1"/>
<circle cx="720" cy="333" r="4" fill="#10b981" stroke="#0f172a" stroke-width="1"/>
<polyline points="80,82 186,82 293,157 400,162 506,166 720,172" fill="none" stroke="#f59e0b" stroke-width="2.0"/>
<circle cx="80" cy="82" r="4" fill="#f59e0b" stroke="#0f172a" stroke-width="1"/>
<circle cx="186" cy="82" r="4" fill="#f59e0b" stroke="#0f172a" stroke-width="1"/>
<circle cx="293" cy="157" r="4" fill="#f59e0b" stroke="#0f172a" stroke-width="1"/>
<circle cx="400" cy="162" r="4" fill="#f59e0b" stroke="#0f172a" stroke-width="1"/>
<circle cx="506" cy="166" r="4" fill="#f59e0b" stroke="#0f172a" stroke-width="1"/>
<circle cx="720" cy="172" r="4" fill="#f59e0b" stroke="#0f172a" stroke-width="1"/>
<polyline points="80,339 186,345 293,351 400,357 506,362 720,372" fill="none" stroke="#ec4899" stroke-width="2.0"/>
<circle cx="80" cy="339" r="4" fill="#ec4899" stroke="#0f172a" stroke-width="1"/>
<circle cx="186" cy="345" r="4" fill="#ec4899" stroke="#0f172a" stroke-width="1"/>
<circle cx="293" cy="351" r="4" fill="#ec4899" stroke="#0f172a" stroke-width="1"/>
<circle cx="400" cy="357" r="4" fill="#ec4899" stroke="#0f172a" stroke-width="1"/>
<circle cx="506" cy="362" r="4" fill="#ec4899" stroke="#0f172a" stroke-width="1"/>
<circle cx="720" cy="372" r="4" fill="#ec4899" stroke="#0f172a" stroke-width="1"/>
<polyline points="80,359 186,361 293,363 400,365 506,367 720,371" fill="none" stroke="#06b6d4" stroke-width="2.0"/>
<circle cx="80" cy="359" r="4" fill="#06b6d4" stroke="#0f172a" stroke-width="1"/>
<circle cx="186" cy="361" r="4" fill="#06b6d4" stroke="#0f172a" stroke-width="1"/>
<circle cx="293" cy="363" r="4" fill="#06b6d4" stroke="#0f172a" stroke-width="1"/>
<circle cx="400" cy="365" r="4" fill="#06b6d4" stroke="#0f172a" stroke-width="1"/>
<circle cx="506" cy="367" r="4" fill="#06b6d4" stroke="#0f172a" stroke-width="1"/>
<circle cx="720" cy="371" r="4" fill="#06b6d4" stroke="#0f172a" stroke-width="1"/>
<polyline points="80,334 186,357 293,375 400,388 506,398 720,411" fill="none" stroke="#a855f7" stroke-width="3.2"/>
<circle cx="80" cy="334" r="4" fill="#a855f7" stroke="#0f172a" stroke-width="1"/>
<circle cx="186" cy="357" r="4" fill="#a855f7" stroke="#0f172a" stroke-width="1"/>
<circle cx="293" cy="375" r="4" fill="#a855f7" stroke="#0f172a" stroke-width="1"/>
<circle cx="400" cy="388" r="4" fill="#a855f7" stroke="#0f172a" stroke-width="1"/>
<circle cx="506" cy="398" r="4" fill="#a855f7" stroke="#0f172a" stroke-width="1"/>
<circle cx="720" cy="411" r="4" fill="#a855f7" stroke="#0f172a" stroke-width="1"/>
<text x="72" y="424" text-anchor="end" fill="#94a3b8" font-size="11">0.00</text>
<text x="72" y="356" text-anchor="end" fill="#94a3b8" font-size="11">0.20</text>
<text x="72" y="288" text-anchor="end" fill="#94a3b8" font-size="11">0.40</text>
<text x="72" y="220" text-anchor="end" fill="#94a3b8" font-size="11">0.60</text>
<text x="72" y="152" text-anchor="end" fill="#94a3b8" font-size="11">0.80</text>
<text x="72" y="84" text-anchor="end" fill="#94a3b8" font-size="11">1.00</text>
<text x="80" y="440" text-anchor="middle" fill="#94a3b8" font-size="11">0.30</text>
<text x="186" y="440" text-anchor="middle" fill="#94a3b8" font-size="11">0.35</text>
<text x="293" y="440" text-anchor="middle" fill="#94a3b8" font-size="11">0.40</text>
<text x="400" y="440" text-anchor="middle" fill="#94a3b8" font-size="11">0.45</text>
<text x="506" y="440" text-anchor="middle" fill="#94a3b8" font-size="11">0.50</text>
<text x="720" y="440" text-anchor="middle" fill="#94a3b8" font-size="11">0.60</text>
<line x1="95" y1="96" x2="113" y2="96" stroke="#94a3b8" stroke-width="2.5"/>
<text x="119" y="100" fill="#e2e8f0" font-size="11">V6_BASELINE</text>
<line x1="95" y1="114" x2="113" y2="114" stroke="#3b82f6" stroke-width="2.5"/>
<text x="119" y="118" fill="#e2e8f0" font-size="11">V8_A_BASELINE_LOSS</text>
<line x1="95" y1="132" x2="113" y2="132" stroke="#10b981" stroke-width="2.5"/>
<text x="119" y="136" fill="#e2e8f0" font-size="11">V8_B_FOCAL_DICE</text>
<line x1="95" y1="150" x2="113" y2="150" stroke="#f59e0b" stroke-width="2.5"/>
<text x="119" y="154" fill="#e2e8f0" font-size="11">V8_C_FOCAL_TVERSKY</text>
<line x1="95" y1="168" x2="113" y2="168" stroke="#ec4899" stroke-width="2.5"/>
<text x="119" y="172" fill="#e2e8f0" font-size="11">V8_D_HIGH_FG_WEIGHT</text>
<line x1="95" y1="186" x2="113" y2="186" stroke="#06b6d4" stroke-width="2.5"/>
<text x="119" y="190" fill="#e2e8f0" font-size="11">V09A_MULTISCALE</text>
<line x1="95" y1="204" x2="113" y2="204" stroke="#a855f7" stroke-width="2.5"/>
<text x="119" y="208" fill="#e2e8f0" font-size="11">V09B_ATTENTION</text>
</svg>